<svg xmlns="http://www.w3.org/2000/svg" width="47" height="16" viewBox="0 0 47 16" fill="none"><g clip-path="url(#clip0_1960_10693)"><path d="M18.4531 14.2284V5.48869C18.4531 4.71657 18.7599 3.97607 19.3058 3.43009C19.8518 2.88412 20.5923 2.57739 21.3644 2.57739L23.9446 2.58099C24.7147 2.58254 25.4528 2.88959 25.9967 3.43473C26.5407 3.97987 26.8461 4.71858 26.846 5.48869V7.34858C26.846 8.12074 26.5393 8.86129 25.9933 9.40734C25.4474 9.95338 24.7069 10.2602 23.9347 10.2603H20.2878" stroke="#f9ca3c" stroke-width="1.52381" stroke-linecap="round" stroke-linejoin="round"></path><path d="M28.9524 2.57739H30.0717C30.3887 2.57739 30.6926 2.70329 30.9167 2.92738C31.1408 3.15147 31.2667 3.45541 31.2667 3.77233V10.3004" stroke="#f9ca3c" stroke-width="1.52381" stroke-linecap="round" stroke-linejoin="round"></path><path d="M31.026 1.56569L30.5185 1.05776C30.4886 1.02784 30.4648 0.992317 30.4486 0.953217C30.4324 0.914117 30.4241 0.872207 30.4241 0.829882C30.4241 0.787557 30.4324 0.745647 30.4486 0.706547C30.4648 0.667447 30.4886 0.631924 30.5185 0.602008L31.026 0.0945215C31.0866 0.0339978 31.1687 0 31.2543 0C31.34 0 31.4221 0.0339978 31.4827 0.0945215L31.9897 0.602008C32.0196 0.631924 32.0434 0.667447 32.0596 0.706547C32.0758 0.745647 32.0841 0.787557 32.0841 0.829882C32.0841 0.872207 32.0758 0.914117 32.0596 0.953217C32.0434 0.992317 32.0196 1.02784 31.9897 1.05776L31.4804 1.56569C31.4504 1.59565 31.4149 1.61941 31.3758 1.63562C31.3366 1.65183 31.2947 1.66018 31.2523 1.66018C31.2099 1.66018 31.168 1.65183 31.1289 1.63562C31.0897 1.61941 31.0542 1.59565 31.0242 1.56569" fill="#f9ca3c"></path><path d="M33.5238 2.57178H34.6337C35.2046 2.57154 35.7523 2.79811 36.1562 3.20164L38.7525 5.79801C38.8325 5.87803 38.9274 5.94152 39.0319 5.98484C39.1364 6.02815 39.2484 6.05045 39.3615 6.05045C39.4746 6.05045 39.5866 6.02815 39.6911 5.98484C39.7956 5.94152 39.8905 5.87803 39.9704 5.79801L42.5573 3.21153C42.7572 3.0117 42.9945 2.85322 43.2557 2.74514C43.5168 2.63707 43.7967 2.58152 44.0793 2.58168H44.9818" stroke="#f9ca3c" stroke-width="1.52381" stroke-linecap="round" stroke-linejoin="round"></path><path d="M33.5238 10.2434H34.6337C35.2046 10.2436 35.7523 10.0171 36.1562 9.61358L38.7525 7.01721C38.9141 6.8558 39.1331 6.76514 39.3615 6.76514C39.5898 6.76514 39.8089 6.8558 39.9704 7.01721L42.5573 9.60413C42.9611 10.0076 43.5086 10.2342 44.0793 10.234H44.9818" stroke="#f9ca3c" stroke-width="1.52381" stroke-linecap="round" stroke-linejoin="round"></path><path d="M11.8354 11.9012C11.5615 11.9022 11.2902 11.8489 11.0371 11.7444C10.7839 11.6399 10.554 11.4863 10.3606 11.2925L8.23033 9.16085C8.15498 9.08879 8.05475 9.04858 7.9505 9.04858C7.84624 9.04858 7.74601 9.08879 7.67066 9.16085L5.53319 11.2983C5.33988 11.4925 5.11003 11.6464 4.8569 11.7512C4.60376 11.8559 4.33238 11.9095 4.05841 11.9088H3.64136L6.34075 14.6082C6.74561 15.0122 7.2942 15.2391 7.86614 15.2391C8.43808 15.2391 8.98667 15.0122 9.39152 14.6082L12.0963 11.903L11.8354 11.9012Z" fill="#f9ca3c"></path><path d="M4.05886 4.36797C4.33283 4.36723 4.60423 4.42081 4.85736 4.5256C5.11049 4.63039 5.34035 4.78432 5.53363 4.97848L7.67111 7.1164C7.7454 7.19047 7.84604 7.23206 7.95094 7.23206C8.05585 7.23206 8.15649 7.19047 8.23078 7.1164L10.3606 4.98658C10.5537 4.79217 10.7836 4.63806 11.0367 4.53318C11.2899 4.4283 11.5614 4.37474 11.8354 4.37561H12.0918L9.38702 1.67082C9.18674 1.47046 8.94893 1.31151 8.6872 1.20307C8.42547 1.09463 8.14494 1.03882 7.86164 1.03882C7.57833 1.03882 7.29781 1.09463 7.03608 1.20307C6.77435 1.31151 6.53655 1.47046 6.33626 1.67082L3.64136 4.36797H4.05886Z" fill="#f9ca3c"></path><path d="M14.3294 6.61361L12.6949 4.97912C12.658 4.99419 12.6186 5.00213 12.5788 5.00252H11.8356C11.4488 5.00348 11.0781 5.15708 10.804 5.42992L8.67413 7.5584C8.48232 7.74986 8.22238 7.85739 7.95136 7.85739C7.68035 7.85739 7.42041 7.74986 7.2286 7.5584L5.09068 5.42182C4.81663 5.14882 4.44588 4.99506 4.05906 4.99397H3.14666C3.10906 4.99312 3.0719 4.98566 3.03689 4.97192L1.39205 6.61361C0.988059 7.01846 0.761169 7.56705 0.761169 8.13899C0.761169 8.71093 0.988059 9.25952 1.39205 9.66438L3.03329 11.3056C3.06823 11.2916 3.10543 11.2841 3.14306 11.2836H4.05906C4.44587 11.2824 4.8166 11.1287 5.09068 10.8557L7.22815 8.71824C7.61461 8.33222 8.28811 8.33222 8.67413 8.71824L10.804 10.8476C11.0781 11.1204 11.4488 11.274 11.8356 11.275H12.5788C12.6186 11.2753 12.658 11.2832 12.6949 11.2984L14.3294 9.66393C14.5297 9.46364 14.6887 9.22583 14.7971 8.96411C14.9056 8.70238 14.9614 8.42185 14.9614 8.13854C14.9614 7.85524 14.9056 7.57471 14.7971 7.31298C14.6887 7.05125 14.5297 6.81345 14.3294 6.61316" fill="#f9ca3c"></path></g><defs><clipPath id="clip0_1960_10693"><rect width="46.4762" height="16" fill="white"></rect></clipPath></defs></svg>